# xmcd CD database file
#
# Track frame offsets:
#	150
#	36862
#	47445
#	59040
#	69812
#	83665
#	92662
#	104725
#	121470
#	130362
#	146532
#	159217
#	175487
#	185590
#	199387
#	217687
#	238935
#
# Disc length: 3808 seconds
#
# Revision: 2
# Processed by: cddbd v1.5.2PL0 Copyright (c) Steve Scherf et al.
# Submitted via: CDex 1.70beta2
#
DISCID=f50ede11
DTITLE=The Ventures - V Gold LIVE!
DYEAR=1999
DGENRE=Rock
TTITLE0=Walk Don't Run Medley (Live)
TTITLE1=The Cruel Sea (Live)
TTITLE2=Telstar (Live)
TTITLE3=Black Sand Beach (Live)
TTITLE4=Apache (Live)
TTITLE5=Out Of Limits (Live)
TTITLE6=Let's Go (Live)
TTITLE7=Stranger In Midosuji ～ Reflections In A Palace Lake (Live)
TTITLE8=Ginza Lights (Live)
TTITLE9=Kyto Doll ～ Paint It Black (Live)
TTITLE10=Walk Don't Run '64 (Live)
TTITLE11=House Of The Rising Sum (Live)
TTITLE12=Slaughter On 10th Ave. (Live)
TTITLE13=Hawaii Five O (Live)
TTITLE14=Wipe Out (Live)
TTITLE15=Diamond Head ～ Pipeline (Live)
TTITLE16=Caravan (Live)
EXTD=YEAR: 1999
EXTT0=
EXTT1=
EXTT2=
EXTT3=
EXTT4=
EXTT5=
EXTT6=
EXTT7=
EXTT8=
EXTT9=
EXTT10=
EXTT11=
EXTT12=
EXTT13=
EXTT14=
EXTT15=
EXTT16=
PLAYORDER=
